<svg xmlns="http://www.w3.org/2000/svg" viewBox="0 0 1200 675" width="1200" height="675" role="img">
  <title>Illustratie van het interieur van de demonstratiewoning</title>
  <rect width="1200" height="675" fill="#f2ede4"/>
  <rect x="0" y="470" width="1200" height="205" fill="#c8a97e"/>
  <line x1="0" y1="470" x2="-80" y2="675" stroke="#b8996d" stroke-width="3"/><line x1="120" y1="470" x2="40" y2="675" stroke="#b8996d" stroke-width="3"/><line x1="240" y1="470" x2="160" y2="675" stroke="#b8996d" stroke-width="3"/><line x1="360" y1="470" x2="280" y2="675" stroke="#b8996d" stroke-width="3"/><line x1="480" y1="470" x2="400" y2="675" stroke="#b8996d" stroke-width="3"/><line x1="600" y1="470" x2="520" y2="675" stroke="#b8996d" stroke-width="3"/><line x1="720" y1="470" x2="640" y2="675" stroke="#b8996d" stroke-width="3"/><line x1="840" y1="470" x2="760" y2="675" stroke="#b8996d" stroke-width="3"/><line x1="960" y1="470" x2="880" y2="675" stroke="#b8996d" stroke-width="3"/><line x1="1080" y1="470" x2="1000" y2="675" stroke="#b8996d" stroke-width="3"/><line x1="1200" y1="470" x2="1120" y2="675" stroke="#b8996d" stroke-width="3"/>
  <rect x="0" y="456" width="1200" height="14" fill="#f7f3ec"/>

  <rect x="700" y="90" width="380" height="290" fill="#cfe3f2"/>
  <rect x="700" y="325" width="380" height="55" fill="#5f8f5a" opacity="0.45"/>
  <circle cx="990" cy="160" r="32" fill="#f6dfa8"/>
  <rect x="700" y="90" width="380" height="290" fill="none" stroke="#9a4733" stroke-width="14"/>
  <line x1="890" y1="90" x2="890" y2="380" stroke="#9a4733" stroke-width="10"/>

  <rect x="240" y="120" width="150" height="110" fill="#f7f3ec" stroke="#9a4733" stroke-width="8"/>
  <polygon points="252,222 300,160 340,222" fill="#5f8f5a" opacity="0.7"/>
  <circle cx="352" cy="152" r="14" fill="#f6dfa8"/>

  <ellipse cx="420" cy="560" rx="300" ry="70" fill="#b4593f" opacity="0.18"/>
  <rect x="110" y="300" width="420" height="140" rx="20" fill="#b4593f"/>
  <rect x="130" y="268" width="180" height="58" rx="16" fill="#9a4733"/>
  <rect x="330" y="268" width="180" height="58" rx="16" fill="#9a4733"/>
  <rect x="150" y="290" width="70" height="46" rx="12" fill="#f7f3ec" opacity="0.85"/>
  <rect x="360" y="290" width="70" height="46" rx="12" fill="#f7f3ec" opacity="0.7"/>
  <rect x="230" y="490" width="250" height="15" rx="7" fill="#8a6f4f"/>
  <rect x="248" y="505" width="15" height="62" fill="#8a6f4f"/>
  <rect x="450" y="505" width="15" height="62" fill="#8a6f4f"/>

  <g transform="translate(618 470)">
    <path d="M -34 0 L 34 0 L 24 -66 L -24 -66 Z" fill="#9a4733"/>
    <ellipse cx="0" cy="-104" rx="52" ry="44" fill="#5f8f5a"/>
    <ellipse cx="-34" cy="-78" rx="30" ry="24" fill="#5f8f5a" opacity="0.85"/>
    <ellipse cx="34" cy="-82" rx="28" ry="22" fill="#5f8f5a" opacity="0.9"/>
  </g>

  <circle cx="600" cy="78" r="26" fill="#f6dfa8"/>
  <line x1="600" y1="0" x2="600" y2="52" stroke="#4a4f57" stroke-width="6"/>
</svg>
